<svg version="1.1" id="Layer_1" xmlns="http://www.w3.org/2000/svg" xmlns:xlink="http://www.w3.org/1999/xlink" x="0px" y="0px" viewBox="7.599999904632568 440.5 2984.800048828125 1119.0999755859375" enable-background="new 0 0 3000 2000" xml:space="preserve">
<polygon fill="#21A7E0" points="7.6,1539.1 191,1355.7 191,1025.6 7.6,1190.7 "></polygon>
<polygon fill="#21A7E0" points="447.8,440.5 447.8,1355.7 631.2,1539.1 631.2,603.8 "></polygon>
<path fill="#1F3540" d="M814.6,1429.2v-379.6h87v85.5c26.8-64.7,71.6-95.6,134.4-92.7v92h-5c-39.3,0-70.7,12.8-94.2,38.5
	c-23.5,25.6-35.2,62.9-35.2,111.8v144.5H814.6z"></path>
<path fill="#1F3540" d="M1266.3,1437.9c-55.6,0-102-18.3-139.1-55c-37.1-36.7-55.7-84-55.7-142v-1.4c0-55.1,17.5-101.8,52.5-140.2
	c35-38.3,79.3-57.5,133-57.5c57.5,0,102.2,19.5,134.1,58.6c31.9,39.1,47.8,87.6,47.8,145.6c0,4.8-0.5,12.9-1.4,24.4h-278.9
	c4.8,30.2,17,53.8,36.7,70.8c19.6,17,43.9,25.5,72.6,25.5c37.4,0,71.6-15.1,102.8-45.3l51,45.3
	C1382.3,1414.1,1330.6,1437.9,1266.3,1437.9 M1157.8,1212.8h194.8c-2.9-29.2-12.7-53.2-29.5-71.9c-16.8-18.7-39.1-28-66.9-28
	c-26.4,0-48.4,9.2-66.1,27.7C1172.4,1159,1161.6,1183.1,1157.8,1212.8"></path>
<path fill="#1F3540" d="M1728.5,1437.1c-52.2,0-95.1-22.3-128.7-66.9v58.9h-87V904.4h87v208.5c33.5-47.4,76.4-71.2,128.7-71.2
	c47.9,0,89.4,17.9,124.4,53.6c35,35.7,52.5,83.5,52.5,143.4v1.4c0,59.9-17.5,107.7-52.5,143.4
	C1817.9,1419.3,1776.4,1437.1,1728.5,1437.1 M1708.4,1361.6c30.7,0,56.4-11.1,77.3-33.4c20.8-22.3,31.3-51.6,31.3-88.1v-1.4
	c0-35.9-10.5-65.2-31.6-87.7c-21.1-22.5-46.7-33.8-76.9-33.8c-30.2,0-56.2,11.4-78,34.1c-21.8,22.8-32.7,51.9-32.7,87.3v1.4
	c0,35.5,10.9,64.6,32.7,87.3C1652.2,1350.3,1678.2,1361.6,1708.4,1361.6"></path>
<path fill="#1F3540" d="M2112.3,1437.1c-42.2,0-75.3-13.2-99.2-39.5c-24-26.4-35.9-61.8-35.9-106.4v-241.6h87v215.7
	c0,29.7,7.1,52.6,21.2,68.7c14.1,16.1,34.1,24.1,60,24.1c25.4,0,46-8.4,61.8-25.2c15.8-16.8,23.7-39.8,23.7-69v-214.2h87v379.6h-87
	v-58.9C2200.7,1414.8,2161.2,1437.1,2112.3,1437.1"></path>
<path fill="#1F3540" d="M2411.7,908.7h93.5v82.7h-93.5V908.7z M2415.3,1049.6h87v379.6h-87V1049.6z"></path>
<rect x="2602.1" y="904.4" fill="#1F3540" width="87" height="524.8"></rect>
<path fill="#1F3540" d="M2912.6,1435.7c-72.9,0-109.3-37.1-109.3-111.4v-199.9h-48.2v-74.8h48.2V945.4h87v104.2h102.1v74.8h-102.1
	v186.2c0,31.6,15.6,47.4,46.7,47.4c18.7,0,36.7-4.3,53.9-12.9v71.2C2967.9,1429.2,2941.8,1435.7,2912.6,1435.7"></path>
<polygon fill="#21A7E0" points="227.7,823.9 227.7,1319.1 319.4,1227.4 411.1,1319.1 411.8,642.2 "></polygon>
<rect x="227.7" y="1486.2" fill="#21A7E0" width="73.4" height="73.4"></rect>
<rect x="337.8" y="1486.2" fill="#21A7E0" width="73.4" height="73.4"></rect>
<rect x="227.7" y="1376.1" fill="#21A7E0" width="73.4" height="73.4"></rect>
<rect x="337.8" y="1376.1" fill="#21A7E0" width="73.4" height="73.4"></rect>
</svg>